<?xml version="1.0" encoding="iso-8859-1"?>
<!-- Generator: Adobe Illustrator 18.0.0, SVG Export Plug-In . SVG Version: 6.00 Build 0)  -->
<!DOCTYPE svg PUBLIC "-//W3C//DTD SVG 1.1//EN" "http://www.w3.org/Graphics/SVG/1.1/DTD/svg11.dtd">
<svg version="1.1" id="Capa_1" xmlns="http://www.w3.org/2000/svg" xmlns:xlink="http://www.w3.org/1999/xlink" x="0px" y="0px"
	 viewBox="0 0 489.79 489.79" style="enable-background:new 0 0 489.79 489.79;" xml:space="preserve">
<path d="M475.14,254.383l-96.26-55.568V87.956c0-8.986-4.799-17.281-12.568-21.774L257.479,3.364
	c-7.786-4.485-17.345-4.485-25.135,0L123.495,66.182c-7.771,4.493-12.565,12.788-12.565,21.774v110.851l-96.279,55.568
	c-7.774,4.493-12.569,12.791-12.569,21.773v125.689c0,8.982,4.795,17.281,12.569,21.774l108.845,62.818
	c3.897,2.241,8.235,3.361,12.569,3.361c4.338,0,8.676-1.12,12.569-3.361l96.26-55.56l96.279,55.56
	c3.893,2.241,8.23,3.361,12.569,3.361c4.338,0,8.672-1.12,12.569-3.361l108.828-62.818c7.775-4.493,12.569-12.792,12.569-21.774
	V276.149C487.709,267.167,482.915,258.868,475.14,254.383z M244.913,54.161l83.69,48.311v96.335l-83.71,48.318l-83.69-48.311
	v-96.343L244.913,54.161z M136.065,435.632l-83.706-48.31v-96.657l83.428-48.156l83.973,48.469v96.343L136.065,435.632z
	 M437.433,387.322l-83.69,48.31l-83.71-48.31v-96.327l83.988-48.493l83.412,48.164V387.322z"/>
<g>
</g>
<g>
</g>
<g>
</g>
<g>
</g>
<g>
</g>
<g>
</g>
<g>
</g>
<g>
</g>
<g>
</g>
<g>
</g>
<g>
</g>
<g>
</g>
<g>
</g>
<g>
</g>
<g>
</g>
</svg>
