<?xml version="1.0" encoding="iso-8859-1"?>
<!-- Generator: Adobe Illustrator 18.0.0, SVG Export Plug-In . SVG Version: 6.00 Build 0)  -->
<!DOCTYPE svg PUBLIC "-//W3C//DTD SVG 1.1//EN" "http://www.w3.org/Graphics/SVG/1.1/DTD/svg11.dtd">
<svg version="1.1" id="Capa_1" xmlns="http://www.w3.org/2000/svg" xmlns:xlink="http://www.w3.org/1999/xlink" x="0px" y="0px"
	 viewBox="0 0 443.416 443.416" style="enable-background:new 0 0 443.416 443.416;" xml:space="preserve">
<path d="M426.416,164.693h-32.387l-35.014-60.646l21.114-26.825c5.807-7.378,4.533-18.066-2.844-23.873
	c-7.38-5.807-18.066-4.533-23.873,2.844l-22.409,28.471h-85.402c-6.074,0-11.686,3.24-14.723,8.5l-41.297,71.529h-82.707
	c-6.073,0-11.686,3.24-14.723,8.5l-42.475,73.565H17c-9.389,0-17,7.611-17,17s7.611,17,17,17h35.029l40.123,69.493
	c3.037,5.26,8.649,8.5,14.723,8.5h84.268l22.409,28.471c3.355,4.262,8.337,6.486,13.37,6.486c3.68,0,7.387-1.189,10.502-3.643
	c7.378-5.807,8.65-16.495,2.845-23.873l-20.46-25.993l35.493-61.478h82.708c6.074,0,11.686-3.24,14.723-8.5l41.298-71.529h32.386
	c9.389,0,17-7.611,17-17C443.416,172.304,435.805,164.693,426.416,164.693z M189.468,324.752h-72.778l-36.392-63.029l36.392-63.029
	h72.778l36.389,63.029L189.468,324.752z M364.57,181.72l-36.375,63.002h-72.779l-36.391-63.028l36.392-63.03h72.776l36.377,63.004
	c0,0.009-0.002,0.017-0.002,0.025C364.568,181.702,364.57,181.712,364.57,181.72z"/>
<g>
</g>
<g>
</g>
<g>
</g>
<g>
</g>
<g>
</g>
<g>
</g>
<g>
</g>
<g>
</g>
<g>
</g>
<g>
</g>
<g>
</g>
<g>
</g>
<g>
</g>
<g>
</g>
<g>
</g>
</svg>
