<?xml version="1.0" encoding="iso-8859-1"?>
<!-- Generator: Adobe Illustrator 18.0.0, SVG Export Plug-In . SVG Version: 6.00 Build 0)  -->
<!DOCTYPE svg PUBLIC "-//W3C//DTD SVG 1.1//EN" "http://www.w3.org/Graphics/SVG/1.1/DTD/svg11.dtd">
<svg version="1.1" id="Capa_1" xmlns="http://www.w3.org/2000/svg" xmlns:xlink="http://www.w3.org/1999/xlink" x="0px" y="0px"
	 viewBox="0 0 289.086 289.086" style="enable-background:new 0 0 289.086 289.086;" xml:space="preserve">
<path d="M241.989,68.677l-45.598-26.326c-3.867-2.232-8.633-2.232-12.5,0l-39.348,22.718l-33.099-19.109V12.5
	c0-6.903-5.597-12.5-12.5-12.5c-6.903,0-12.5,5.597-12.5,12.5v33.459L47.097,68.677c-3.867,2.233-6.25,6.359-6.25,10.825v52.65
	c0,4.466,2.383,8.592,6.25,10.825l39.348,22.72v45.053c0,4.466,2.383,8.593,6.25,10.825l39.349,22.718v32.293
	c0,6.903,5.597,12.5,12.5,12.5c6.903,0,12.5-5.597,12.5-12.5v-32.293l31.218-18.025l21.802,21.802
	c4.882,4.882,12.797,4.881,17.678,0c4.882-4.882,4.882-12.796,0-17.678l-25.1-25.1v-39.596l39.348-22.72
	c3.867-2.233,6.25-6.359,6.25-10.825v-52.65C248.239,75.036,245.856,70.909,241.989,68.677z M65.847,86.719l33.098-19.109
	l33.099,19.109v37.837l-33.43,19.3l-32.767-18.92V86.719z M111.445,165.697l33.099-19.111l33.098,19.111v37.836l-33.098,19.109
	l-33.099-19.109V165.697z M223.239,124.936l-32.767,18.92l-33.429-19.3V86.719l33.098-19.109l33.098,19.109V124.936z"/>
<g>
</g>
<g>
</g>
<g>
</g>
<g>
</g>
<g>
</g>
<g>
</g>
<g>
</g>
<g>
</g>
<g>
</g>
<g>
</g>
<g>
</g>
<g>
</g>
<g>
</g>
<g>
</g>
<g>
</g>
</svg>
